HIERARCHY
ROOT Hips
{
	OFFSET 0.000000 0.000000 0.000000
	CHANNELS 6 Xposition Yposition Zposition Xrotation Yrotation Zrotation
	JOINT Chest
	{
		OFFSET 0.000000 1.136021 10.224184
		CHANNELS 3 Xrotation Yrotation Zrotation
		JOINT Chest2
		{
			OFFSET 0.000000 -0.000000 11.333265
			CHANNELS 3 Xrotation Yrotation Zrotation
			JOINT Chest3
			{
				OFFSET 0.000000 0.005192 10.347984
				CHANNELS 3 Xrotation Yrotation Zrotation
				JOINT Chest4
				{
					OFFSET 0.000000 0.005197 10.336430
					CHANNELS 3 Xrotation Yrotation Zrotation
					JOINT Neck
					{
						OFFSET 0.000000 -0.000001 14.463490
						CHANNELS 3 Xrotation Yrotation Zrotation
						JOINT Head
						{
							OFFSET 0.000000 -0.011165 9.624710
							CHANNELS 3 Xrotation Yrotation Zrotation
							End Site
							{
								OFFSET 0.000000 0.000000 0.099998
							}
						}
					}
					JOINT RightCollar
					{
						OFFSET -3.157643 -0.000000 8.110622
						CHANNELS 3 Xrotation Yrotation Zrotation
						JOINT RightShoulder
						{
							OFFSET -14.841243 0.000000 0.000000
							CHANNELS 3 Xrotation Yrotation Zrotation
							JOINT RightElbow
							{
								OFFSET -31.724693 0.000000 0.000000
								CHANNELS 3 Xrotation Yrotation Zrotation
								JOINT RightWrist
								{
									OFFSET -25.942017 0.000000 0.000000
									CHANNELS 3 Xrotation Yrotation Zrotation
									End Site
									{
										OFFSET 0.000000 0.000000 0.099998
									}
								}
							}
						}
					}
					JOINT LeftCollar
					{
						OFFSET 3.157643 -0.000000 8.110622
						CHANNELS 3 Xrotation Yrotation Zrotation
						JOINT LeftShoulder
						{
							OFFSET 14.841243 0.000000 0.000000
							CHANNELS 3 Xrotation Yrotation Zrotation
							JOINT LeftElbow
							{
								OFFSET 31.724693 0.000000 0.000000
								CHANNELS 3 Xrotation Yrotation Zrotation
								JOINT LeftWrist
								{
									OFFSET 25.942017 0.000000 0.000000
									CHANNELS 3 Xrotation Yrotation Zrotation
									End Site
									{
										OFFSET 0.000000 0.000000 0.099998
									}
								}
							}
						}
					}
				}
			}
		}
	}
	JOINT RightHip
	{
		OFFSET -8.427108 0.001539 0.013854
		CHANNELS 3 Xrotation Yrotation Zrotation
		JOINT RightKnee
		{
			OFFSET 0.000000 0.001229 -43.437389
			CHANNELS 3 Xrotation Yrotation Zrotation
			JOINT RightAnkle
			{
				OFFSET 0.000000 0.002070 -42.439701
				CHANNELS 3 Xrotation Yrotation Zrotation
				JOINT RightToe
				{
					OFFSET 0.000000 -19.371378 -8.481461
					CHANNELS 3 Xrotation Yrotation Zrotation
					End Site
					{
						OFFSET 0.000000 0.000000 0.099998
					}
				}
			}
		}
	}
	JOINT LeftHip
	{
		OFFSET 8.427108 0.001285 0.011561
		CHANNELS 3 Xrotation Yrotation Zrotation
		JOINT LeftKnee
		{
			OFFSET 0.000000 0.001229 -43.437389
			CHANNELS 3 Xrotation Yrotation Zrotation
			JOINT LeftAnkle
			{
				OFFSET 0.000000 0.002070 -42.439705
				CHANNELS 3 Xrotation Yrotation Zrotation
				JOINT LeftToe
				{
					OFFSET 0.000000 -19.371378 -8.481461
					CHANNELS 3 Xrotation Yrotation Zrotation
					End Site
					{
						OFFSET 0.000000 0.000000 0.099998
					}
				}
			}
		}
	}
}
MOTION
Frames: 8
Frame Time: 0.004184
-255.420624 472.272583 92.554695 -4.701899 3.030479 165.031044 -0.324914 0.452906 -0.401830 -5.971153 0.218132 -0.157578 -0.150718 0.218148 -0.157556 5.723598 0.150715 -0.134230 9.490289 0.817424 -1.415943 -18.383965 2.106281 -2.186227 1.478639 -7.861571 2.861666 -36.096102 -54.916080 -55.427033 40.520319 -30.809706 82.703632 -6.009694 0.878978 23.186120 2.195995 5.855197 -2.492119 -32.199465 59.640058 30.760624 37.490902 11.188150 -84.937384 -3.539699 -9.144187 -18.409187 -29.130781 0.463636 -5.943070 31.650823 0.806136 -2.064487 -17.753842 -1.493316 5.190715 0.000001 0.000000 0.000002 -12.718033 -6.468713 10.789575 83.899114 -3.087480 5.766073 -7.934450 3.491274 3.877557 0.000003 -0.000000 0.000000 
-255.280258 473.043243 92.183640 -4.618492 2.938173 164.949670 -0.206392 0.411882 -0.327488 -5.918377 0.196761 -0.126412 -0.097942 0.196773 -0.126393 5.763198 0.137162 -0.109332 9.375787 0.844108 -1.410643 -18.596771 2.153798 -2.162897 1.496836 -7.938749 2.951268 -35.848139 -55.351655 -54.371263 39.954373 -30.720528 82.490449 -6.112635 1.045654 23.316661 2.016589 5.893738 -2.433869 -32.271612 59.527045 31.387721 37.531271 11.264810 -84.521296 -3.651360 -9.124497 -18.401873 -29.469828 0.271210 -5.900322 33.280623 1.024690 -1.245229 -18.119718 -0.971939 4.372214 0.000000 -0.000000 0.000000 -13.362401 -6.715694 11.094160 85.570912 -3.502438 5.731756 -8.349869 3.122992 4.186471 0.000003 -0.000001 0.000002 
-255.144333 473.804321 91.802361 -4.531255 2.840573 164.864183 -0.079163 0.367833 -0.254863 -5.861741 0.174098 -0.096156 -0.041309 0.174107 -0.096138 5.805686 0.122572 -0.085013 9.252983 0.873682 -1.400182 -18.825142 2.204277 -2.128734 1.517602 -8.021551 3.044571 -35.527642 -55.817337 -53.199240 39.337365 -30.619653 82.247437 -6.228045 1.232223 23.461119 1.820703 5.937188 -2.369358 -32.374229 59.404860 32.062499 37.576405 11.343142 -84.063974 -3.772056 -9.103548 -18.391881 -29.867550 0.067011 -5.861738 35.064531 1.285937 -0.276098 -18.608507 -0.415726 3.406439 -0.000002 -0.000000 -0.000001 -14.025736 -6.966642 11.411755 87.231809 -3.931139 5.707193 -8.756640 2.735454 4.487864 0.000000 0.000000 0.000001 
-255.011856 474.559113 91.417152 -4.442049 2.739527 164.776989 0.053886 0.322094 -0.183569 -5.802536 0.150712 -0.066596 0.017898 0.150718 -0.066579 5.850101 0.107384 -0.061157 9.124468 0.904388 -1.386060 -19.064236 2.255162 -2.087262 1.540121 -8.108889 3.139806 -35.147723 -56.298435 -51.935300 38.689695 -30.509642 81.982207 -6.351318 1.432345 23.614356 1.615889 5.984035 -2.300891 -32.493778 59.276473 32.767911 37.621372 11.419652 -83.572952 -3.899629 -9.081367 -18.380375 -30.297930 -0.142803 -5.831189 36.946682 1.587588 0.792309 -19.191903 0.159405 2.340061 0.000001 0.000000 0.000001 -14.704395 -7.220631 11.735737 88.867216 -4.367254 5.690852 -9.155209 2.336644 4.778726 0.000001 -0.000000 0.000001 
-254.881851 475.310852 91.034180 -4.352747 2.636911 164.690409 0.189861 0.275976 -0.113238 -5.742041 0.127164 -0.037499 0.078392 0.127169 -0.037485 5.895478 0.092035 -0.037645 8.992842 0.934473 -1.369791 -19.309192 2.303914 -2.042036 1.563559 -8.199698 3.235185 -34.724098 -56.780886 -50.606200 38.031648 -30.393509 81.702696 -6.477900 1.639563 23.771297 1.409699 6.032769 -2.230813 -32.617131 59.145033 33.487359 37.661369 11.491039 -83.055940 -4.031946 -9.058053 -18.368566 -30.735015 -0.351917 -5.812102 38.871293 1.924945 1.910292 -19.844075 0.737686 1.220026 -0.000002 -0.000001 -0.000001 -15.394760 -7.476442 12.059615 90.462536 -4.804572 5.680341 -9.546178 1.934424 5.055783 0.000001 0.000000 -0.000001 
-254.753326 476.062775 90.659706 -4.265178 2.534594 164.606808 0.325865 0.230772 -0.043522 -5.681548 0.104012 -0.008667 0.138884 0.104014 -0.008654 5.940851 0.076953 -0.014361 8.860687 0.962180 -1.352881 -19.555151 2.348013 -1.996622 1.587057 -8.292942 3.328889 -34.275590 -57.251417 -49.241480 37.383388 -30.274776 81.417200 -6.603277 1.847272 23.926948 1.209694 6.081897 -2.161481 -32.731574 59.013920 34.204611 37.691764 11.554250 -82.520734 -4.166913 -9.033783 -18.357720 -31.152838 -0.553872 -5.807470 40.782827 2.290601 3.029265 -20.541773 1.302882 0.093418 0.000001 -0.000001 0.000001 -16.093258 -7.732578 12.377025 92.003044 -5.237076 5.672463 -9.930308 1.536568 5.315506 0.000001 0.000001 -0.000003 
-254.625290 476.818146 90.299965 -4.181190 2.434463 164.528520 0.458985 0.187758 0.025918 -5.622347 0.081802 0.020114 0.198083 0.081802 0.020121 5.985252 0.062564 0.008807 8.730602 0.985756 -1.336852 -19.797254 2.384967 -1.954629 1.609727 -8.387610 3.419083 -33.824435 -57.697736 -47.873831 36.764938 -30.157471 81.134369 -6.722999 2.048741 24.076376 1.023435 6.129933 -2.095295 -32.824916 58.886770 34.903923 37.708115 11.606467 -81.975309 -4.302487 -9.008815 -18.349146 -31.525493 -0.742122 -5.819832 42.626210 2.674341 4.101889 -21.264228 1.837885 -0.992641 0.000001 -0.000001 -0.000000 -16.796323 -7.987218 12.681781 93.473885 -5.658961 5.663253 -10.308533 1.150785 5.554136 -0.000001 0.000000 0.000001 
-254.496765 477.580231 89.961182 -4.102603 2.338445 164.457882 0.586308 0.148183 0.095396 -5.565736 0.061077 0.049041 0.254696 0.061072 0.049050 6.027711 0.049287 0.031969 8.605168 1.003452 -1.323236 -20.030646 2.412299 -1.919663 1.630658 -8.482721 3.503905 -33.396343 -58.108586 -46.539133 36.196116 -30.046111 80.863156 -6.832653 2.237101 24.214759 0.858492 6.175388 -2.034648 -32.885336 58.767378 35.569938 37.706114 11.645111 -81.427774 -4.436647 -8.983490 -18.344223 -31.827063 -0.910092 -5.851336 44.346892 3.063229 5.082141 -21.992946 2.324458 -1.991084 -0.000001 0.000001 -0.000002 -17.500440 -8.238275 12.967844 94.860092 -6.064661 5.648064 -10.681930 0.784746 5.767727 -0.000000 0.000000 0.000001 
